<svg width="36" height="23" viewBox="0 0 36 23" fill="none" xmlns="http://www.w3.org/2000/svg">
<path d="M10.9534 0.00201182C11.8966 -0.0154744 12.8384 0.0810825 13.7584 0.289577C14.5329 0.458436 15.2683 0.772657 15.9254 1.21554C16.5323 1.65593 17.0125 2.24799 17.3178 2.9323C17.6687 3.77376 17.8379 4.67964 17.8146 5.59083C17.8544 6.59134 17.5985 7.58143 17.0788 8.43772C16.532 9.24647 15.7762 9.89236 14.8916 10.3069C16.0921 10.6301 17.1377 11.3704 17.8405 12.3946C18.5151 13.4799 18.8542 14.7397 18.8153 16.0165C18.8376 17.0345 18.6268 18.0441 18.199 18.9683C17.8036 19.7746 17.2247 20.4773 16.5086 21.0201C15.7713 21.557 14.9416 21.9541 14.0607 22.1919C13.1473 22.4443 12.2036 22.571 11.2558 22.5687H0.849609V0.00201182H10.9534ZM10.353 9.12932C11.094 9.15982 11.8235 8.9383 12.4221 8.50099C12.7088 8.24615 12.9318 7.92788 13.0733 7.57162C13.2148 7.21536 13.2709 6.83098 13.2371 6.44921C13.2563 6.00332 13.1674 5.5594 12.9779 5.15517C12.8172 4.83333 12.5673 4.56434 12.258 4.38019C11.9446 4.17747 11.5926 4.04186 11.2241 3.98191C10.8243 3.90457 10.4175 3.86939 10.0103 3.87695H5.56386V9.14945H10.353V9.12932ZM10.6122 18.7369C11.0603 18.7429 11.5076 18.6946 11.9441 18.5931C12.343 18.5051 12.7213 18.3416 13.0586 18.1114C13.389 17.8813 13.6559 17.5718 13.8347 17.2113C14.042 16.7517 14.1372 16.2496 14.1126 15.7462C14.1575 15.2874 14.0967 14.8244 13.9347 14.3928C13.7727 13.9611 13.5139 13.5722 13.1781 13.2559C12.4663 12.7324 11.5941 12.4731 10.7115 12.5226H5.56386V18.7369H10.6122Z" fill="black" fill-opacity="0.6"/>
<path d="M25.5042 18.6709C25.8735 19.0123 26.3084 19.2752 26.7827 19.4437C27.2569 19.6122 27.7606 19.6828 28.263 19.6512C29.0596 19.6712 29.8406 19.4295 30.4859 18.9633C31.0108 18.6229 31.4083 18.1191 31.6167 17.5302H35.3683C34.9686 19.2067 33.9925 20.6904 32.6096 21.7234C31.2829 22.6017 29.7151 23.0464 28.1237 22.996C26.9878 23.0109 25.8605 22.7979 24.8088 22.3697C23.8574 21.974 23.0042 21.3759 22.3086 20.6171C21.6158 19.822 21.0834 18.9008 20.741 17.9042C20.3567 16.7903 20.1685 15.6184 20.185 14.4405C20.1779 13.2823 20.3724 12.1317 20.7597 11.0398C21.28 9.50365 22.2748 8.17142 23.6014 7.23425C24.9281 6.29708 26.5182 5.80314 28.1438 5.82332C29.3439 5.7983 30.5307 6.07843 31.5923 6.63731C32.5518 7.16211 33.3796 7.89708 34.0134 8.78694C34.6617 9.72068 35.1263 10.7687 35.3827 11.8752C35.6639 13.0635 35.7642 14.2872 35.6802 15.5053H24.5056C24.4151 16.6496 24.773 17.7844 25.5042 18.6709ZM30.4068 10.1168C30.0941 9.80489 29.718 9.5634 29.3039 9.40865C28.8897 9.2539 28.4471 9.18948 28.0058 9.21973C27.4205 9.19747 26.8393 9.32683 26.319 9.5952C25.9064 9.8217 25.5423 10.1265 25.247 10.4923C24.9854 10.8353 24.7904 11.2242 24.6723 11.6388C24.5658 11.9846 24.4993 12.3413 24.474 12.7021H31.3954C31.3351 11.7615 30.9916 10.861 30.4097 10.1183L30.4068 10.1168Z" fill="black" fill-opacity="0.6"/>
<path d="M32.2589 1.50928H23.562V3.7374H32.2589V1.50928Z" fill="black" fill-opacity="0.6"/>
</svg>
