<svg width="29" height="23" viewBox="0 0 29 23" fill="none" xmlns="http://www.w3.org/2000/svg">
<path d="M24.5497 1.90657C22.7014 1.0241 20.7193 0.373939 18.6469 0.00156207C18.6091 -0.00562468 18.5714 0.0123354 18.552 0.0482564C18.2971 0.520011 18.0147 1.13545 17.817 1.61919C15.588 1.27196 13.3704 1.27196 11.1871 1.61919C10.9894 1.1247 10.6968 0.520011 10.4407 0.0482564C10.4213 0.0135339 10.3836 -0.00442618 10.3458 0.00156207C8.27456 0.372749 6.29247 1.02291 4.44296 1.90657C4.42695 1.91376 4.41323 1.92574 4.40412 1.9413C0.644515 7.78564 -0.385398 13.4863 0.119843 19.1164C0.122129 19.1439 0.136989 19.1703 0.157564 19.187C2.63804 21.0824 5.04081 22.2331 7.39896 22.9958C7.4367 23.0078 7.47669 22.9934 7.50071 22.9611C8.05853 22.1685 8.55578 21.3327 8.98212 20.4538C9.00728 20.4023 8.98326 20.3413 8.93184 20.3209C8.14312 20.0096 7.3921 19.63 6.66967 19.199C6.61253 19.1643 6.60796 19.0792 6.66052 19.0385C6.81255 18.92 6.96462 18.7966 7.10978 18.6721C7.13604 18.6494 7.17264 18.6446 7.20352 18.6589C11.9496 20.9136 17.0877 20.9136 21.7777 18.6589C21.8086 18.6434 21.8452 18.6482 21.8726 18.6709C22.0178 18.7954 22.1698 18.92 22.323 19.0385C22.3756 19.0792 22.3722 19.1643 22.315 19.199C21.5926 19.6384 20.8416 20.0096 20.0517 20.3197C20.0003 20.3401 19.9774 20.4023 20.0026 20.4538C20.4381 21.3315 20.9353 22.1672 21.4828 22.9599C21.5057 22.9934 21.5468 23.0078 21.5846 22.9958C23.9542 22.2331 26.3569 21.0824 28.8374 19.187C28.8591 19.1703 28.8728 19.1451 28.8751 19.1176C29.4798 12.6086 27.8623 6.95468 24.5874 1.94249C24.5794 1.92574 24.5657 1.91376 24.5497 1.90657ZM9.69086 15.6883C8.26198 15.6883 7.08462 14.3233 7.08462 12.647C7.08462 10.9706 8.23915 9.60567 9.69086 9.60567C11.154 9.60567 12.3199 10.9826 12.2971 12.647C12.2971 14.3233 11.1425 15.6883 9.69086 15.6883ZM19.327 15.6883C17.8981 15.6883 16.7208 14.3233 16.7208 12.647C16.7208 10.9706 17.8753 9.60567 19.327 9.60567C20.7901 9.60567 21.9561 10.9826 21.9332 12.647C21.9332 14.3233 20.7901 15.6883 19.327 15.6883Z" fill="black" fill-opacity="0.6"/>
</svg>
