<svg width="29" height="23" viewBox="0 0 29 23" fill="none" xmlns="http://www.w3.org/2000/svg">
<path d="M25.9089 0H3.50886C1.96886 0 0.708862 1.29375 0.708862 2.875V20.125C0.708862 21.7063 1.96886 23 3.50886 23H25.9089C27.4489 23 28.7089 21.7063 28.7089 20.125V2.875C28.7089 1.29375 27.4489 0 25.9089 0ZM25.3489 6.10938L16.1929 11.9888C15.2829 12.5781 14.1349 12.5781 13.2249 11.9888L4.06886 6.10938C3.71886 5.87937 3.50886 5.49125 3.50886 5.07438C3.50886 4.11125 4.53086 3.53625 5.32886 4.03938L14.7089 10.0625L24.0889 4.03938C24.8869 3.53625 25.9089 4.11125 25.9089 5.07438C25.9089 5.49125 25.6989 5.87937 25.3489 6.10938Z" fill="black" fill-opacity="0.6"/>
</svg>
