<svg width="24" height="23" viewBox="0 0 24 23" fill="none" xmlns="http://www.w3.org/2000/svg">
<g clip-path="url(#clip0_256_1148)">
<path d="M8.35006 0H23.6325V15.1067C23.6325 17.11 22.8274 19.0312 21.3944 20.4478C19.9614 21.8643 18.0178 22.6601 15.9913 22.6601H6.43976C4.91983 22.6601 3.46215 22.0633 2.3874 21.0009C1.31265 19.9385 0.708862 18.4975 0.708862 16.9951L0.708862 7.55337C0.708862 5.55009 1.51391 3.62886 2.94692 2.21233C4.37992 0.795799 6.32349 0 8.35006 0V0Z" fill="black" fill-opacity="0.6"/>
<g opacity="0.5">
<path d="M19.3117 11.8886C20.064 11.1449 20.4866 10.1363 20.4866 9.08457C20.4866 8.03287 20.064 7.02424 19.3117 6.28057C18.5594 5.53692 17.539 5.11914 16.4751 5.11914C15.4112 5.11914 14.3908 5.53692 13.6385 6.28057L12.9038 7.00682L18.577 12.6141L19.3117 11.8886Z" fill="white"/>
</g>
<path d="M12.9038 7.00645L12.1706 6.28057C11.4183 5.53692 10.398 5.11914 9.33405 5.11914C8.27012 5.11914 7.24976 5.53692 6.49744 6.28057C5.74514 7.02424 5.32251 8.03287 5.32251 9.08457C5.32251 10.1363 5.74514 11.1449 6.49744 11.8886L7.23023 12.6141L12.9038 18.2228L18.577 12.6141L12.9038 7.00645ZM10.4514 9.76267C10.4514 9.88287 10.4031 9.99814 10.3171 10.0831C10.2311 10.1681 10.1145 10.2159 9.99291 10.2159H8.19723C8.07563 10.2159 7.95902 10.1681 7.87304 10.0831C7.78706 9.99814 7.73875 9.88287 7.73875 9.76267V7.94986C7.73875 7.82967 7.78706 7.71439 7.87304 7.6294C7.95902 7.54441 8.07563 7.49666 8.19723 7.49666H9.99291C10.1145 7.49666 10.2311 7.54441 10.3171 7.6294C10.4031 7.71439 10.4514 7.82967 10.4514 7.94986V9.76267Z" fill="white"/>
</g>
<defs>
<clipPath id="clip0_256_1148">
<rect width="23" height="23" fill="white" transform="translate(0.708862)"/>
</clipPath>
</defs>
</svg>
