<svg width="29" height="23" viewBox="0 0 29 23" fill="none" xmlns="http://www.w3.org/2000/svg">
<path d="M26.0772 5.74074C26.0772 6 26.0772 6.25926 26.0772 6.48148C26.0772 14.1481 20.0798 23 9.14791 23C5.76963 23 2.65707 22.037 0 20.4074C0.455497 20.4444 0.948953 20.4815 1.40445 20.4815C4.17539 20.4815 6.75654 19.5556 8.80628 18C6.18717 17.963 3.9856 16.2593 3.2644 13.963C3.64398 14.037 3.9856 14.0741 4.40314 14.0741C4.93456 14.0741 5.46597 14 5.95942 13.8519C3.22644 13.3333 1.1767 11 1.1767 8.18519C1.1767 8.14815 1.1767 8.14815 1.1767 8.11111C1.97382 8.55556 2.88482 8.81482 3.87173 8.85185C2.27749 7.81482 1.21466 6.03704 1.21466 4C1.21466 2.92593 1.51832 1.92593 2.01178 1.07407C4.93456 4.59259 9.3377 6.88889 14.2723 7.14815C14.1584 6.74074 14.1204 6.25926 14.1204 5.81482C14.1204 2.59259 16.7775 0 20.0798 0C21.788 0 23.3442 0.703704 24.4071 1.81482C25.7736 1.55556 27.0262 1.07407 28.2029 0.407407C27.7474 1.77778 26.7984 2.88889 25.5838 3.62963C26.7984 3.48148 27.9372 3.18519 29 2.7037C28.2408 3.88889 27.2539 4.92593 26.0772 5.74074Z" fill="black" fill-opacity="0.6"/>
</svg>
