<svg width="33" height="23" viewBox="0 0 33 23" fill="none" xmlns="http://www.w3.org/2000/svg">
<path fill-rule="evenodd" clip-rule="evenodd" d="M29.2776 0.703529C30.6847 1.08235 31.7941 2.19176 32.1729 3.59882C32.8765 6.16941 32.8494 11.5271 32.8494 11.5271C32.8494 11.5271 32.8494 16.8576 32.1729 19.4282C31.7941 20.8353 30.6847 21.9447 29.2776 22.3235C26.7071 23 16.4247 23 16.4247 23C16.4247 23 6.16941 23 3.57176 22.2965C2.16471 21.9176 1.05529 20.8082 0.67647 19.4012C0 16.8576 0 11.5 0 11.5C0 11.5 0 6.16941 0.67647 3.59882C1.05529 2.19176 2.19176 1.05529 3.57176 0.676471C6.14235 0 16.4247 0 16.4247 0C16.4247 0 26.7071 0 29.2776 0.703529ZM21.7012 11.4999L13.1506 16.4246V6.57516L21.7012 11.4999Z" fill="black" fill-opacity="0.6"/>
</svg>
